# Blender 4.2.0
# www.blender.org
mtllib small_rock.mtl
o Icosphere.001
v -0.007968 0.012134 0.117278
v 0.169552 0.107340 0.309622
v 0.165800 0.043264 0.260245
v 0.098664 -0.046707 0.293326
v 0.090647 0.044441 0.385667
v 0.123611 0.107340 0.385666
v 0.039926 0.134621 0.417978
v 0.010609 0.209079 0.389514
v -0.069269 -0.039860 0.231376
v -0.091313 0.012134 0.149781
v -0.069261 -0.039866 0.231376
v -0.013016 -0.014396 0.382322
v 0.098657 -0.046713 0.293321
v 0.134529 -0.014396 0.138086
v 0.135678 0.210692 0.131304
v -0.024270 0.012134 0.423946
v -0.069271 -0.039854 0.231385
v -0.126978 0.096252 0.281807
v -0.007968 0.012134 0.117278
v 0.084407 0.012134 0.081262
v 0.029802 0.115302 0.038796
v 0.029798 0.115313 0.038800
v 0.029793 0.115303 0.038800
v -0.007973 0.012143 0.117275
v -0.047386 0.210688 0.088493
v 0.013584 0.232510 0.095292
v 0.029807 0.115312 0.038796
v 0.029807 0.115312 0.038796
v 0.029807 0.115312 0.038796
v 0.029807 0.115312 0.038796
v 0.018861 0.085415 0.061537
v 0.165637 0.033295 0.129301
v 0.146086 0.012134 0.105365
v 0.151806 0.001169 0.122990
v 0.164233 0.016511 0.133149
v 0.109859 0.142098 0.084439
v 0.129346 0.171595 0.107868
v 0.100114 0.277120 0.229777
v 0.037601 0.233396 0.365929
v 0.085565 0.233396 0.347186
v 0.062030 0.294091 0.260070
v 0.014066 0.294091 0.278813
v -0.083384 0.210352 0.358631
v -0.112668 0.184644 0.334781
v -0.024270 0.012134 0.423946
v -0.010511 0.038377 0.422675
v -0.003143 0.018072 0.416918
v -0.018353 -0.001808 0.402076
v -0.112034 0.188534 0.125630
v -0.098649 0.191324 0.112832
v -0.093028 0.200045 0.104149
v -0.090260 0.210684 0.105247
v -0.112037 0.188543 0.333070
v -0.093255 0.224381 0.336628
v -0.014523 0.295311 0.217951
v -0.090260 0.210684 0.105247
v -0.093252 0.224374 0.149154
v -0.102157 0.207379 0.125630
v 0.007263 0.294381 0.276317
v -0.014523 0.295311 0.240804
v -0.093255 0.224381 0.336628
v -0.084373 0.211825 0.356387
v 0.013584 0.232510 0.095292
v 0.135670 0.210698 0.131304
v -0.072156 0.226921 0.120960
v -0.014523 0.295311 0.217951
v 0.170697 0.116346 0.288796
v 0.154553 0.179339 0.174299
v 0.170878 0.100108 0.182801
v 0.129670 0.237205 0.275249
v 0.081800 0.172345 0.381390
v 0.085573 0.233390 0.347186
v -0.121601 0.129477 0.161035
v -0.114158 0.066016 0.169743
v -0.126978 0.096252 0.281807
v -0.121602 0.129477 0.301714
v -0.051132 0.042969 0.358205
v 0.050536 0.138176 0.449800
v 0.048387 0.074099 0.426287
v 0.009937 -0.015872 0.442040
v 0.005346 0.075276 0.486013
v 0.024225 0.138176 0.486013
v -0.023703 0.165457 0.501400
v -0.040493 0.239914 0.487845
v -0.086240 -0.009024 0.412539
v -0.098865 0.042969 0.373683
v -0.086236 -0.009030 0.412539
v -0.054024 0.016440 0.484421
v 0.009933 -0.015878 0.442038
v 0.030478 0.016440 0.368114
v 0.031136 0.241528 0.364885
v -0.060468 0.042969 0.504242
v -0.086242 -0.009018 0.412544
v -0.119291 0.127088 0.436555
v -0.051132 0.042969 0.358205
v 0.001772 0.042969 0.341054
v -0.029501 0.146138 0.320832
v -0.029503 0.146148 0.320834
v -0.029506 0.146139 0.320834
v -0.051135 0.042978 0.358204
v -0.073707 0.241524 0.344498
v -0.038789 0.263345 0.347736
v -0.029498 0.146147 0.320832
v -0.029498 0.146147 0.320832
v -0.029498 0.146147 0.320832
v -0.029498 0.146147 0.320832
v -0.035767 0.116250 0.331661
v 0.048294 0.064131 0.363931
v 0.037097 0.042969 0.352532
v 0.040373 0.032005 0.360926
v 0.047490 0.047346 0.365763
v 0.016349 0.172934 0.342567
v 0.027509 0.202431 0.353724
v 0.010768 0.307956 0.411778
v -0.025034 0.264231 0.476614
v 0.002435 0.264231 0.467689
v -0.011044 0.324927 0.426204
v -0.038513 0.324926 0.435129
v -0.094324 0.241188 0.473139
v -0.111096 0.215479 0.461782
v -0.060468 0.042969 0.504242
v -0.052589 0.069213 0.503637
v -0.048369 0.048907 0.500895
v -0.057080 0.029027 0.493827
v -0.110732 0.219370 0.362183
v -0.103066 0.222159 0.356088
v -0.099847 0.230880 0.351953
v -0.098262 0.241520 0.352476
v -0.110734 0.219378 0.460967
v -0.099977 0.255216 0.462661
v -0.054887 0.326146 0.406146
v -0.098262 0.241520 0.352476
v -0.099976 0.255209 0.373385
v -0.105076 0.238215 0.362183
v -0.042409 0.325217 0.433941
v -0.054887 0.326146 0.417029
v -0.099977 0.255216 0.462661
v -0.094891 0.242661 0.472070
v -0.038789 0.263345 0.347736
v 0.031131 0.241533 0.364885
v -0.087893 0.257756 0.359959
v -0.054887 0.326146 0.406146
v 0.051191 0.147181 0.439883
v 0.041946 0.210175 0.385359
v 0.051295 0.130943 0.389408
v 0.027695 0.268041 0.433432
v 0.000279 0.203181 0.483977
v 0.002440 0.264226 0.467689
v -0.116211 0.160312 0.379043
v -0.111949 0.096852 0.383189
v -0.119291 0.127088 0.436555
v -0.116212 0.160313 0.446034
v 0.121825 0.004019 0.080966
v 0.024778 0.056525 0.002475
v 0.026829 0.021187 0.022625
v 0.063531 -0.028431 0.009125
v 0.067914 0.021836 -0.028557
v 0.049893 0.056525 -0.028557
v 0.095642 0.071571 -0.041742
v 0.111669 0.112633 -0.030127
v 0.155337 -0.024655 0.034406
v 0.167388 0.004019 0.067703
v 0.155333 -0.024658 0.034406
v 0.124585 -0.010612 -0.027192
v 0.063535 -0.028435 0.009127
v 0.043924 -0.010612 0.072475
v 0.043296 0.113523 0.075242
v 0.130737 0.004019 -0.044178
v 0.155339 -0.024652 0.034402
v 0.186886 0.050410 0.013826
v 0.121825 0.004019 0.080966
v 0.071325 0.004019 0.095664
v 0.101177 0.060916 0.112993
v 0.101179 0.060922 0.112991
v 0.101182 0.060917 0.112991
v 0.121828 0.004024 0.080967
v 0.143374 0.113521 0.092713
v 0.110043 0.125556 0.089938
v 0.101174 0.060922 0.112993
v 0.101174 0.060922 0.112993
v 0.101174 0.060921 0.112993
v 0.101174 0.060922 0.112993
v 0.107158 0.044433 0.103713
v 0.026918 0.015689 0.076060
v 0.037606 0.004019 0.085828
v 0.034479 -0.002028 0.078635
v 0.027685 0.006433 0.074490
v 0.057411 0.075694 0.094367
v 0.046758 0.091961 0.084806
v 0.062739 0.150158 0.035058
v 0.096913 0.126044 -0.020502
v 0.070692 0.126044 -0.012854
v 0.083558 0.159517 0.022696
v 0.109780 0.159517 0.015048
v 0.163054 0.113336 -0.017524
v 0.179063 0.099158 -0.007792
v 0.130737 0.004019 -0.044178
v 0.123215 0.018492 -0.043659
v 0.119187 0.007294 -0.041310
v 0.127502 -0.003670 -0.035253
v 0.178716 0.101303 0.077558
v 0.171399 0.102842 0.082780
v 0.168326 0.107651 0.086324
v 0.166813 0.113519 0.085876
v 0.178718 0.101308 -0.007093
v 0.168450 0.121073 -0.008545
v 0.125409 0.160190 0.039884
v 0.166813 0.113519 0.085876
v 0.168448 0.121069 0.067958
v 0.173317 0.111696 0.077558
v 0.113498 0.159677 0.016066
v 0.125409 0.160190 0.030558
v 0.168450 0.121073 -0.008545
v 0.163594 0.114148 -0.016608
v 0.110043 0.125556 0.089938
v 0.043301 0.113526 0.075242
v 0.156915 0.122473 0.079464
v 0.125409 0.160190 0.039884
v 0.024152 0.061492 0.010974
v 0.032977 0.096232 0.057698
v 0.024053 0.052536 0.054228
v 0.046580 0.128145 0.016502
v 0.072751 0.092375 -0.026811
v 0.070688 0.126041 -0.012854
v 0.183946 0.068733 0.063110
v 0.179877 0.033735 0.059557
v 0.186886 0.050410 0.013826
v 0.183947 0.068733 0.005703
vn -0.3149 -0.4989 -0.8074
vn -0.5549 -0.7614 0.3352
vn -0.8077 0.2690 -0.5247
vn 0.3250 0.4461 0.8339
vn 0.3608 -0.6725 0.6462
vn 0.8578 0.5106 -0.0583
vn 0.0971 0.9849 -0.1431
vn -0.3112 0.2182 0.9250
vn 0.4506 -0.0665 -0.8902
vn -0.6694 0.7429 -0.0000
vn 0.3343 -0.1456 0.9311
vn 0.7889 -0.6086 0.0853
vn 0.3816 0.4671 0.7976
vn 0.3256 0.4468 -0.8333
vn -0.7572 0.3441 0.5552
vn 0.7810 -0.4093 0.4718
vn -0.8436 -0.1689 0.5097
vn -0.0333 -0.9992 -0.0201
vn 0.3256 0.4468 0.8333
vn -0.6095 -0.3264 -0.7224
vn -0.8244 -0.4677 0.3189
vn -0.9871 0.1599 -0.0000
vn -0.0982 -0.8846 -0.4559
vn -0.1912 -0.8504 -0.4903
vn -0.0000 -1.0000 -0.0000
vn 0.3581 -0.1854 0.9151
vn -0.3575 0.1874 -0.9149
vn -0.3820 -0.4672 -0.7974
vn -0.0194 -0.9124 -0.4088
vn -0.0000 1.0000 -0.0000
vn -0.0525 0.4277 -0.9024
vn -0.5532 -0.1981 -0.8092
vn 0.8270 -0.2579 -0.4995
vn 0.7214 0.0865 -0.6871
vn 0.6527 0.4866 0.5807
vn 0.9244 0.1600 -0.3463
vn 0.2040 0.8282 0.5219
vn 0.5558 0.7542 0.3497
vn 0.3954 -0.4789 0.7838
vn -0.5582 0.1047 0.8231
vn -0.8857 0.4642 -0.0000
vn -0.1849 0.7822 0.5949
vn -0.6524 0.7097 -0.2657
vn -0.4876 0.8233 -0.2905
vn -0.3495 0.8470 0.4006
vn -0.2212 0.7943 -0.5659
vn 0.2864 0.8391 -0.4626
vn 0.0249 0.8921 -0.4511
vn 0.5593 0.7669 -0.3146
vn 0.9796 0.1988 -0.0288
vn 0.8222 0.2387 0.5167
vn 0.8848 0.3365 0.3222
vn 0.9969 -0.0777 0.0095
vn -0.9987 -0.0157 -0.0488
vn -0.9207 -0.3903 -0.0000
vn -0.2970 -0.2696 -0.9160
vn -0.6827 -0.5365 0.4960
vn -0.7793 0.1486 -0.6088
vn 0.2995 0.2365 0.9243
vn 0.3841 -0.4100 0.8273
vn 0.9437 0.3217 -0.0771
vn 0.1625 0.9438 -0.2880
vn -0.2678 0.1076 0.9574
vn 0.3877 -0.0328 -0.9212
vn -0.8439 0.5365 -0.0001
vn 0.2853 -0.0712 0.9558
vn 0.9083 -0.4013 0.1181
vn 0.3578 0.2501 0.8997
vn 0.3003 0.2360 -0.9242
vn -0.7362 0.1916 0.6491
vn 0.7862 -0.2360 0.5712
vn -0.8056 -0.0924 0.5853
vn -0.0581 -0.9974 -0.0422
vn 0.3003 0.2360 0.9242
vn -0.5656 -0.1735 -0.8062
vn -0.8697 -0.2826 0.4046
vn -0.9957 0.0924 -0.0000
vn -0.1304 -0.6728 -0.7282
vn -0.2425 -0.6178 -0.7480
vn 0.3079 -0.0919 0.9470
vn -0.3077 0.0924 -0.9470
vn -0.3586 -0.2504 -0.8993
vn -0.0271 -0.7280 -0.6850
vn -0.0471 0.2199 -0.9744
vn -0.4916 -0.1009 -0.8649
vn 0.8007 -0.1430 -0.5817
vn 0.6570 0.0451 -0.7526
vn 0.6555 0.2799 0.7014
vn 0.9080 0.0900 -0.4091
vn 0.2509 0.5836 0.7723
vn 0.6778 0.5268 0.5130
vn 0.3736 -0.2592 0.8907
vn -0.4905 0.0527 0.8698
vn -0.9578 0.2875 -0.0000
vn -0.2139 0.5184 0.8279
vn -0.7837 0.4883 -0.3839
vn -0.6391 0.6180 -0.4579
vn -0.4552 0.6318 0.6274
vn -0.2608 0.5365 -0.8026
vn 0.3630 0.6091 -0.7052
vn 0.0335 0.6853 -0.7275
vn 0.6944 0.5445 -0.4704
vn 0.9927 0.1153 -0.0351
vn 0.7909 0.1315 0.5977
vn 0.8983 0.1956 0.3934
vn 0.9989 -0.0446 0.0114
vn -0.9982 -0.0090 -0.0586
vn -0.9718 -0.2360 -0.0000
vn 0.2559 -0.4020 0.8792
vn 0.5342 -0.7265 -0.4323
vn 0.7320 0.2416 0.6370
vn -0.2611 0.3553 -0.8975
vn -0.3136 -0.5794 -0.7523
vn -0.8586 0.5066 0.0781
vn -0.0972 0.9766 0.1918
vn 0.2401 0.1669 -0.9563
vn -0.3530 -0.0516 0.9342
vn 0.6726 0.7400 -0.0000
vn -0.2573 -0.1111 -0.9599
vn -0.7892 -0.6034 -0.1143
vn -0.3141 0.3774 -0.8712
vn -0.2617 0.3559 0.8971
vn 0.6792 0.3060 -0.6671
vn -0.7208 -0.3744 -0.5833
vn 0.7682 -0.1524 -0.6218
vn 0.0336 -0.9991 0.0272
vn -0.2617 0.3559 -0.8971
vn 0.5128 -0.2722 0.8142
vn 0.7943 -0.4467 -0.4117
vn 0.9874 0.1585 -0.0000
vn 0.0915 -0.8171 0.5692
vn 0.1761 -0.7765 0.6050
vn -0.2799 -0.1451 -0.9490
vn 0.2771 0.1440 0.9500
vn 0.3147 -0.3777 0.8708
vn 0.0184 -0.8553 0.5179
vn 0.0409 0.3307 0.9428
vn 0.4487 -0.1593 0.8794
vn -0.7559 -0.2337 0.6116
vn -0.6152 0.0731 0.7850
vn -0.5806 0.4291 -0.6920
vn -0.8834 0.1516 0.4434
vn -0.1858 0.7481 -0.6371
vn -0.5330 0.7170 -0.4493
vn -0.3245 -0.3897 -0.8619
vn 0.4501 0.0837 -0.8891
vn 0.8874 0.4610 -0.0000
vn 0.1640 0.6879 -0.7071
vn 0.6375 0.6874 0.3478
vn 0.4747 0.7944 0.3788
vn 0.3310 0.7951 -0.5082
vn 0.1983 0.7061 0.6798
vn -0.2661 0.7730 0.5759
vn -0.0233 0.8254 0.5640
vn -0.5399 0.7354 0.4095
vn -0.9796 0.1970 0.0385
vn -0.7471 0.2150 -0.6290
vn -0.8512 0.3209 -0.4153
vn -0.9969 -0.0770 -0.0127
vn 0.9977 -0.0156 0.0653
vn 0.9219 -0.3875 -0.0000
vt 0.134584 0.233107
vt 0.134584 0.233107
vt 0.187116 0.314919
vt 0.076856 0.314921
vt 0.402155 0.381636
vt 0.402159 0.381629
vt 0.545446 0.314921
vt 0.535127 0.332811
vt 0.525802 0.348962
vt 0.402159 0.381644
vt 0.255163 0.157461
vt 0.267396 0.148225
vt 0.272728 0.157461
vt 0.264283 0.157461
vt 0.257322 0.157461
vt 0.187117 0.314921
vt 0.286602 0.314921
vt 0.555783 0.332811
vt 0.565568 0.310212
vt 0.654884 0.289301
vt 0.683683 0.390423
vt 0.683678 0.390430
vt 0.565108 0.348962
vt 0.795004 0.104692
vt 0.912661 0.157461
vt 0.872673 0.182324
vt 0.753047 0.122272
vt 0.857294 0.048931
vt 0.791640 0.049065
vt 0.607184 0.049065
vt 0.585781 0.049022
vt 0.449521 0.048883
vt 0.393293 0.048883
vt 0.478592 0.157261
vt 0.568763 0.156511
vt 0.601727 0.217455
vt 0.557511 0.294039
vt 0.304490 0.211857
vt 0.134579 0.233099
vt 0.017280 0.314921
vt 0.300837 0.139897
vt 0.353383 0.048883
vt 0.370839 0.048883
vt 0.444030 0.139896
vt 0.601727 0.217455
vt 0.683683 0.239421
vt 0.565568 0.310212
vt 0.557511 0.294039
vt 0.770863 0.390423
vt 0.795171 0.290234
vt 0.893074 0.311450
vt 0.900968 0.328990
vt 0.889438 0.348962
vt 0.770868 0.390430
vt 0.149806 0.256813
vt 0.187117 0.314921
vt 0.912666 0.157454
vt 0.466229 0.129466
vt 0.304490 0.211857
vt 0.557916 0.188466
vt 0.912661 0.157461
vt 0.448265 0.146582
vt 0.442619 0.157461
vt 0.441312 0.157461
vt 0.444030 0.139896
vt 0.447848 0.145859
vt 0.755478 0.239421
vt 0.442620 0.178118
vt 0.402159 0.248214
vt 0.417362 0.221866
vt 0.325115 0.381644
vt 0.645073 0.126400
vt 0.652713 0.186896
vt 0.588177 0.126393
vt 0.645061 0.126393
vt 0.134592 0.233106
vt 0.134592 0.233106
vt 0.257318 0.165904
vt 0.264377 0.172820
vt 0.187120 0.314914
vt 0.282869 0.175026
vt 0.441313 0.175026
vt 0.442620 0.178118
vt 0.417362 0.221866
vt 0.309911 0.221864
vt 0.219091 0.355388
vt 0.325119 0.381636
vt 0.134592 0.233106
vt 0.213748 0.157464
vt 0.255159 0.157467
vt 0.187120 0.314914
vt 0.149806 0.256813
vt 0.008123 0.328990
vt 0.017280 0.314921
vt 0.019654 0.348962
vt 0.264381 0.172814
vt 0.311272 0.272191
vt 0.286602 0.314921
vt 0.896676 0.298140
vt 0.910804 0.309286
vt 0.909091 0.314921
vt 0.901721 0.304959
vt 0.896676 0.298140
vt 0.930562 0.188466
vt 0.941684 0.207730
vt 0.652713 0.186896
vt 0.772840 0.232279
vt 0.683683 0.239421
vt 0.857476 0.245156
vt 0.588177 0.126393
vt 0.545547 0.050182
vt 0.574695 0.051520
vt 0.603606 0.102459
vt 0.728043 0.049065
vt 0.779619 0.104081
vt 0.753047 0.122272
vt 0.684504 0.123823
vt 0.684501 0.123816
vt 0.545455 0.314921
vt 0.552287 0.313321
vt 0.282869 0.156554
vt 0.538810 0.049873
vt 0.477177 0.155437
vt 0.258095 0.132116
vt 0.260165 0.145628
vt 0.282869 0.139897
vt 0.293567 0.121366
vt 0.391859 0.048883
vt 0.444218 0.139571
vt 0.162087 0.129466
vt 0.243054 0.136629
vt 0.213749 0.157461
vt 0.823303 0.051424
vt 0.149582 0.079362
vt 0.223072 0.077916
vt 0.297220 0.055147
vt 0.886690 0.051424
vt 0.912666 0.157453
vt 0.848118 0.171249
vt 0.693666 0.143744
vt 0.772840 0.232279
vt 0.857476 0.245156
vt 0.896676 0.298140
vt 0.402159 0.381629
s 0
usemtl Material.001
f 21/1/1 20/4/1 24/3/1 27/2/1 28/2/1 29/2/1
f 9/5/2 11/10/2 12/9/2 48/8/2 45/7/2 16/7/2 17/6/2
f 56/11/3 52/11/3 51/15/3 50/14/3 49/13/3 58/12/3
f 24/16/4 10/17/4 19/16/4
f 48/18/5 12/23/5 13/22/5 4/21/5 5/20/5 47/19/5
f 38/24/6 70/27/6 68/26/6 15/25/6
f 38/28/7 66/33/7 55/33/7 60/32/7 59/31/7 42/30/7 41/29/7
f 43/34/8 46/37/8 7/36/8 8/35/8
f 36/38/9 33/40/9 20/4/9 21/1/9 29/39/9 28/39/9
f 57/41/10 54/44/10 61/44/10 60/43/10 55/42/10
f 7/45/11 46/48/11 47/47/11 5/20/11 6/46/11
f 4/49/12 13/54/12 14/53/12 34/52/12 35/51/12 3/50/12
f 27/2/13 24/3/13 19/56/13 31/55/13
f 64/57/14 15/61/14 37/60/14 36/59/14 28/39/14 26/58/14 63/58/14
f 43/62/15 62/66/15 61/65/15 54/65/15 53/64/15 44/63/15
f 2/67/16 6/46/16 5/20/16 4/49/16 3/50/16
f 44/68/17 76/70/17 75/69/17 18/69/17 16/7/17 45/7/17
f 11/71/18 14/53/18 13/22/18 12/9/18
f 72/72/19 40/75/19 39/74/19 8/35/19 7/36/19 71/73/19
f 22/76/20 24/80/20 50/79/20 51/78/20 23/77/20
f 16/7/21 18/69/21 17/6/21
f 49/81/22 73/85/22 76/84/22 44/83/22 53/82/22
f 24/86/23 14/53/23 11/71/23
f 24/16/24 11/71/24 9/87/24 10/17/24
f 19/56/25 1/56/25 24/16/25
f 21/1/26 29/2/26 30/2/26 22/88/26 23/77/26
f 29/39/27 21/1/27 23/77/27 51/78/27 52/90/27 25/89/27 28/39/27
f 22/76/28 30/2/28 31/92/28 19/56/28 24/91/28
f 34/93/29 14/95/29 24/86/29 20/4/29 33/94/29
f 27/39/30 31/39/30 30/39/30 29/39/30 28/39/30
f 25/89/31 26/58/31 27/39/31 28/39/31
f 50/96/32 24/80/32 19/16/32 10/98/32 74/97/32 73/85/32 49/81/32
f 32/99/33 35/102/33 34/101/33 33/100/33
f 32/103/34 33/100/34 36/105/34 37/104/34
f 7/45/35 6/108/35 2/67/35 67/107/35 71/106/35
f 69/109/36 32/103/36 37/104/36 15/61/36 68/26/36
f 39/110/37 40/113/37 41/112/37 42/111/37
f 41/114/38 40/118/38 72/117/38 70/116/38 38/115/38
f 45/119/39 48/120/39 47/47/39 46/48/39
f 45/7/40 46/37/40 43/34/40 44/68/40
f 58/121/41 49/81/41 53/82/41 54/44/41 57/41/41
f 59/122/42 62/123/42 43/34/42 8/35/42 39/110/42 42/111/42
f 56/11/43 58/125/43 57/124/43
f 55/42/44 66/42/44 65/127/44 56/126/44 57/41/44
f 61/44/45 62/129/45 59/128/45 60/43/45
f 63/130/46 26/130/46 25/132/46 52/11/46 56/11/46 65/131/46
f 38/133/47 64/135/47 63/134/47
f 38/133/48 63/134/48 65/136/48 66/33/48
f 38/137/49 15/25/49 64/138/49
f 67/107/50 69/109/50 68/139/50
f 70/116/51 72/117/51 71/140/51
f 67/107/52 68/26/52 70/27/52 71/106/52
f 67/141/53 2/67/53 3/50/53 35/51/53 32/143/53 69/142/53
f 73/85/54 74/97/54 75/69/54 76/84/54
f 74/97/55 10/17/55 9/5/55 17/144/55 18/69/55 75/69/55
usemtl Material.003
f 97/1/56 96/4/56 100/3/56 103/2/56 104/2/56 105/2/56
f 85/5/57 87/10/57 88/9/57 124/8/57 121/7/57 92/7/57 93/6/57
f 132/11/58 128/11/58 127/15/58 126/14/58 125/13/58 134/12/58
f 100/16/59 86/17/59 95/16/59
f 124/18/60 88/23/60 89/22/60 80/21/60 81/20/60 123/19/60
f 114/24/61 146/27/61 144/26/61 91/25/61
f 114/28/62 142/33/62 131/33/62 136/32/62 135/31/62 118/30/62 117/29/62
f 119/34/63 122/37/63 83/36/63 84/35/63
f 112/38/64 109/40/64 96/4/64 97/1/64 105/39/64 104/39/64
f 133/41/65 130/44/65 137/44/65 136/43/65 131/42/65
f 83/45/66 122/48/66 123/47/66 81/20/66 82/46/66
f 80/49/67 89/54/67 90/53/67 110/52/67 111/51/67 79/50/67
f 103/2/68 100/3/68 95/56/68 107/55/68
f 140/57/69 91/61/69 113/60/69 112/59/69 104/39/69 102/58/69 139/58/69
f 119/62/70 138/66/70 137/65/70 130/65/70 129/64/70 120/63/70
f 78/67/71 82/46/71 81/20/71 80/49/71 79/50/71
f 120/68/72 152/70/72 151/69/72 94/69/72 92/7/72 121/7/72
f 87/71/73 90/53/73 89/22/73 88/9/73
f 148/72/74 116/75/74 115/74/74 84/35/74 83/36/74 147/73/74
f 98/76/75 100/80/75 126/79/75 127/78/75 99/77/75
f 92/7/76 94/69/76 93/6/76
f 125/81/77 149/85/77 152/84/77 120/83/77 129/82/77
f 100/86/78 90/53/78 87/71/78
f 100/16/79 87/71/79 85/87/79 86/17/79
f 95/56/25 77/56/25 100/16/25
f 97/1/80 105/2/80 106/2/80 98/88/80 99/77/80
f 105/39/81 97/1/81 99/77/81 127/78/81 128/90/81 101/89/81 104/39/81
f 98/76/82 106/2/82 107/92/82 95/56/82 100/91/82
f 110/93/83 90/95/83 100/86/83 96/4/83 109/94/83
f 103/39/25 107/39/25 106/39/25 105/39/25 104/39/25
f 101/89/84 102/58/84 103/39/84 104/39/84
f 126/96/85 100/80/85 95/16/85 86/98/85 150/97/85 149/85/85 125/81/85
f 108/99/86 111/102/86 110/101/86 109/100/86
f 108/103/87 109/100/87 112/105/87 113/104/87
f 83/45/88 82/108/88 78/67/88 143/107/88 147/106/88
f 145/109/89 108/103/89 113/104/89 91/61/89 144/26/89
f 115/110/90 116/113/90 117/112/90 118/111/90
f 117/114/91 116/118/91 148/117/91 146/116/91 114/115/91
f 121/119/92 124/120/92 123/47/92 122/48/92
f 121/7/93 122/37/93 119/34/93 120/68/93
f 134/121/94 125/81/94 129/82/94 130/44/94 133/41/94
f 135/122/95 138/123/95 119/34/95 84/35/95 115/110/95 118/111/95
f 132/11/96 134/125/96 133/124/96
f 131/42/97 142/42/97 141/127/97 132/126/97 133/41/97
f 137/44/98 138/129/98 135/128/98 136/43/98
f 139/130/99 102/130/99 101/132/99 128/11/99 132/11/99 141/131/99
f 114/133/100 140/135/100 139/134/100
f 114/133/101 139/134/101 141/136/101 142/33/101
f 114/137/102 91/25/102 140/138/102
f 143/107/103 145/109/103 144/139/103
f 146/116/104 148/117/104 147/140/104
f 143/107/105 144/26/105 146/27/105 147/106/105
f 143/141/106 78/67/106 79/50/106 111/51/106 108/143/106 145/142/106
f 149/85/107 150/97/107 151/69/107 152/84/107
f 150/97/108 86/17/108 85/5/108 93/144/108 94/69/108 151/69/108
usemtl Material.002
f 173/1/109 172/4/109 176/3/109 179/2/109 180/2/109 181/2/109
f 161/5/110 163/10/110 164/9/110 200/8/110 197/7/110 168/7/110 169/6/110
f 208/11/111 204/11/111 203/15/111 202/14/111 201/13/111 210/12/111
f 176/16/112 162/17/112 171/16/112
f 200/18/113 164/23/113 165/22/113 156/21/113 157/20/113 199/19/113
f 190/24/114 222/27/114 220/26/114 167/25/114
f 190/28/115 218/33/115 207/33/115 212/32/115 211/31/115 194/30/115 193/29/115
f 195/34/116 198/37/116 159/36/116 160/35/116
f 188/38/117 185/40/117 172/4/117 173/1/117 181/39/117 180/39/117
f 209/41/118 206/44/118 213/44/118 212/43/118 207/42/118
f 159/45/119 198/48/119 199/47/119 157/20/119 158/46/119
f 156/49/120 165/54/120 166/53/120 186/52/120 187/51/120 155/50/120
f 179/2/121 176/3/121 171/56/121 183/55/121
f 216/57/122 167/61/122 189/60/122 188/59/122 180/39/122 178/58/122 215/58/122
f 195/62/123 214/66/123 213/65/123 206/65/123 205/64/123 196/63/123
f 154/67/124 158/46/124 157/20/124 156/49/124 155/50/124
f 196/68/125 228/70/125 227/69/125 170/69/125 168/7/125 197/7/125
f 163/71/126 166/53/126 165/22/126 164/9/126
f 224/72/127 192/75/127 191/74/127 160/35/127 159/36/127 223/73/127
f 174/76/128 176/80/128 202/79/128 203/78/128 175/77/128
f 168/7/129 170/69/129 169/6/129
f 201/81/130 225/85/130 228/84/130 196/83/130 205/82/130
f 176/86/131 166/53/131 163/71/131
f 176/16/132 163/71/132 161/87/132 162/17/132
f 171/56/25 153/56/25 176/16/25
f 173/1/133 181/2/133 182/2/133 174/88/133 175/77/133
f 181/39/134 173/1/134 175/77/134 203/78/134 204/90/134 177/89/134 180/39/134
f 174/76/135 182/2/135 183/92/135 171/56/135 176/91/135
f 186/93/136 166/95/136 176/86/136 172/4/136 185/94/136
f 179/39/25 183/39/25 182/39/25 181/39/25 180/39/25
f 177/89/137 178/58/137 179/39/137 180/39/137
f 202/96/138 176/80/138 171/16/138 162/98/138 226/97/138 225/85/138 201/81/138
f 184/99/139 187/102/139 186/101/139 185/100/139
f 184/103/140 185/100/140 188/105/140 189/104/140
f 159/45/141 158/108/141 154/67/141 219/107/141 223/106/141
f 221/109/142 184/103/142 189/104/142 167/61/142 220/26/142
f 191/110/143 192/113/143 193/112/143 194/111/143
f 193/114/144 192/118/144 224/117/144 222/116/144 190/115/144
f 197/119/145 200/120/145 199/47/145 198/48/145
f 197/7/146 198/37/146 195/34/146 196/68/146
f 210/121/147 201/81/147 205/82/147 206/44/147 209/41/147
f 211/122/148 214/123/148 195/34/148 160/35/148 191/110/148 194/111/148
f 208/11/149 210/125/149 209/124/149
f 207/42/150 218/42/150 217/127/150 208/126/150 209/41/150
f 213/44/151 214/129/151 211/128/151 212/43/151
f 215/130/152 178/130/152 177/132/152 204/11/152 208/11/152 217/131/152
f 190/133/153 216/135/153 215/134/153
f 190/133/154 215/134/154 217/136/154 218/33/154
f 190/137/155 167/25/155 216/138/155
f 219/107/156 221/109/156 220/139/156
f 222/116/157 224/117/157 223/140/157
f 219/107/158 220/26/158 222/27/158 223/106/158
f 219/141/159 154/67/159 155/50/159 187/51/159 184/143/159 221/142/159
f 225/85/160 226/97/160 227/69/160 228/84/160
f 226/97/161 162/17/161 161/5/161 169/144/161 170/69/161 227/69/161
